<svg id="a94cc622-35ef-46af-b6c4-643702684486" data-name="Layer 1" xmlns="http://www.w3.org/2000/svg" viewBox="0 0 304 230"><path d="M61.68,213.32l-24.49-3.75-.1-.29A37.94,37.94,0,0,1,35.19,195l0-.4.4-.06a6,6,0,0,0,4-2.12,5.13,5.13,0,0,0,.69-3.35,82.36,82.36,0,0,0-.83-9,.61.61,0,0,1,.41-.67c5.76-2,11.71-3.77,17.65-5.25A207.92,207.92,0,0,1,81,169.68l17.53-.27c5.1-3.26,10.43-6.32,15.83-9.12a207.12,207.12,0,0,1,21.28-9.52l-1.25-2.37.61-.16a107.42,107.42,0,0,1,13-2.49c1.58-.2,4.09-.48,7.1-.67,21.91-1.35,44.61-.27,44.84-.26,7.9.4,15.94.88,23.91,1.42,8.33.57,16.72,1.22,24.94,1.93h.13l.32.22,2.16,5.3,8.17,9.87,3.5,1.66-.93-1.34,2.86,2.42,0,0h0l0,0a4.37,4.37,0,0,1,1.39,2.33l.3,1.35c.47,2.09,1,4.25,1.25,6.42.33,2.46.44,5,.56,7.4.05,1.14.1,2.29.18,3.43l1.38,1a3.71,3.71,0,0,1,1.48,2.5l.6,4.7a4.81,4.81,0,0,1-.05,1.52h0a26.32,26.32,0,0,1-1.93,5.84,27.22,27.22,0,0,1-2.69,4.52l-.14.19-20.27,1.1v-.53a20.6,20.6,0,0,0-6.86-15.46,22.2,22.2,0,0,0-17-5.84,21.72,21.72,0,0,0-15,8.25,20.3,20.3,0,0,0-4.22,15.64l.09.57L104,212.56l0-.55c.92-11-5.58-21.14-15.46-24.08a22.49,22.49,0,0,0-19.48,3.51,20.39,20.39,0,0,0-7.58,21.16ZM38,208.68l22.42,3.43a21.4,21.4,0,0,1,8.12-21.47A23.48,23.48,0,0,1,88.85,187c10.17,3,16.92,13.29,16.22,24.56h.62L203,210.36a21.31,21.31,0,0,1,4.49-15.84,22.76,22.76,0,0,1,15.67-8.63A23.22,23.22,0,0,1,241,192a21.58,21.58,0,0,1,7.18,15.67l18.73-1a25.18,25.18,0,0,0,4.31-9.77h0a3.38,3.38,0,0,0,0-1.19l-.59-4.7a2.72,2.72,0,0,0-1.09-1.83l-1.75-1.3v-.23c-.09-1.23-.14-2.46-.2-3.69-.11-2.4-.23-4.89-.55-7.31-.29-2.12-.77-4.26-1.23-6.33l-.31-1.36a3.32,3.32,0,0,0-1.11-1.82l.19-.23-.24.19a3.42,3.42,0,0,0-.76-.49l-4.72-2.29-8.37-10.15-2-5c-8.14-.7-16.44-1.34-24.68-1.9-8-.54-16-1-23.89-1.43-.22,0-22.88-1.08-44.73.27-3,.18-5.47.46-7,.66a105.33,105.33,0,0,0-12.27,2.32L137,151.3l-.53.2a204.9,204.9,0,0,0-21.71,9.68c-5.41,2.8-10.76,5.88-15.88,9.15l-.11.08L81,170.67a209.61,209.61,0,0,0-23.24,4.42c-5.82,1.45-11.63,3.18-17.28,5.13a80.52,80.52,0,0,1,.8,8.81,6.12,6.12,0,0,1-.87,4,6.65,6.65,0,0,1-4.28,2.47A37,37,0,0,0,38,208.68Z" fill="#b5b5b5"/><path d="M35.15,195.62l0-.62a36.9,36.9,0,0,1,.52-4.35,37.75,37.75,0,0,1,3.76-10.89l.16-.32.76.1.09.39a81.24,81.24,0,0,1,.84,9.1,6.12,6.12,0,0,1-.87,4,6.82,6.82,0,0,1-4.69,2.53Zm4.54-14.09a37.34,37.34,0,0,0-3,9.29,36.14,36.14,0,0,0-.46,3.6,5.5,5.5,0,0,0,3.4-2h0a5.13,5.13,0,0,0,.69-3.35C40.24,186.63,40,184.1,39.69,181.53Z" fill="#b5b5b5"/><path d="M114.56,160.74A205.28,205.28,0,0,1,136.32,151l-1.22-2.3A233.71,233.71,0,0,0,89.58,170l9.07-.13C103.4,166.87,108.71,163.77,114.56,160.74Z" fill="#d6d6d6"/><path d="M87.74,170.57l1.58-.95A233.19,233.19,0,0,1,110.87,158a239.36,239.36,0,0,1,24.06-9.77l.41-.13L137,151.3l-.53.2a204.9,204.9,0,0,0-21.71,9.68c-5.41,2.8-10.76,5.88-15.88,9.15l-.11.08Zm47.12-21.23a234.45,234.45,0,0,0-23.57,9.59c-6.73,3.17-13.41,6.73-19.87,10.59l7.08-.11c5.1-3.26,10.43-6.32,15.83-9.12h0a207.12,207.12,0,0,1,21.28-9.52Z" fill="#b5b5b5"/><path d="M265,167.42a1.21,1.21,0,0,1-.58-.27l-.24-.18c-.25-.17-.52-.34-.62-.39l-4.72-2.29-8.37-10.15c-.23-.58-.55-1.31-.88-2-1.11-2.5-1.37-3.18-1.24-3.59l.13-.38.4,0c1.7.18,4.1,2.93,6.83,6.25.51.62,1,1.18,1.35,1.6,2,2.23,3.56,4.31,4.33,5.31a22.22,22.22,0,0,1,2.39,3.36,9.26,9.26,0,0,0,.94,1.4c.37.24.76.55.77.8v.31l-.27.15A.43.43,0,0,1,265,167.42Zm-5.46-3.85,3.35,1.58a21.63,21.63,0,0,0-2.27-3.19c-.79-1-2.36-3.07-4.31-5.28-.38-.43-.85-1-1.37-1.63-1.5-1.81-3.85-4.66-5.4-5.59.25.62.66,1.54,1,2.23s.63,1.43.86,2Z" fill="#b5b5b5"/><path d="M164.15,150.64c-9.51.58-19.37,1.89-26.37,4.62-3.55,1.39-10.33,4.33-17.75,8.09-5,2.52-9.9,5.23-14.68,8.09l55.35-3.77C161.67,162.81,163.29,154.85,164.15,150.64Z" fill="#d6d6d6"/><path d="M103.31,172.08l1.78-1.07c4.78-2.86,9.73-5.59,14.72-8.11,7.43-3.76,14.23-6.72,17.79-8.11,6.13-2.39,15.05-3.95,26.52-4.64l.65,0-.13.63c-.86,4.21-2.48,12.17-3.45,17l-.07.37-.38,0Zm60.22-20.9c-11.06.71-19.65,2.24-25.57,4.55-3.54,1.38-10.3,4.32-17.7,8.06-4.34,2.2-8.65,4.55-12.85,7l52.88-3.6C161.21,162.56,162.67,155.4,163.53,151.18Z" fill="#b5b5b5"/><path d="M203.55,151.2q-4.35-.31-8.68-.52c-5.85-.29-11.45-.44-16.66-.44-2,0-4.15,0-6.36.08L171.36,167l38.14-2.6Z" fill="#d6d6d6"/><path d="M170.84,167.48l.52-17.65h.48c2.1,0,4.24-.08,6.37-.08,5.21,0,10.82.15,16.68.44,2.79.13,5.72.31,8.7.52l.3,0,6.37,14.08Zm1.49-16.67-.46,15.6,36.88-2.51-5.53-12.23c-2.87-.2-5.69-.36-8.38-.5-5.84-.28-11.44-.43-16.63-.43C176.25,150.74,174.27,150.77,172.33,150.81Z" fill="#b5b5b5"/><path d="M114.75,169.76,112,172.68a1.68,1.68,0,0,0,.57,1.21,1.93,1.93,0,0,0,1.55.39l3.53-2.69-2.87-1.83" fill="#fff"/><path d="M113.75,174.81a2.31,2.31,0,0,1-1.54-.55,2.15,2.15,0,0,1-.74-1.57v-.2l3.2-3.38,3.83,2.44-4.2,3.2-.11,0A3.14,3.14,0,0,1,113.75,174.81Zm-1.26-1.95a1.15,1.15,0,0,0,.38.65,1.45,1.45,0,0,0,1,.3l2.86-2.18-1.93-1.23Z" fill="#b5b5b5"/><path d="M122,165.86a15.59,15.59,0,0,0-2.46-.07c-2.11.05-4.39.1-5.26,1.35a2.48,2.48,0,0,0,.45,2.93c1.25,1.47,4,1.93,5.87,1.3C121,169.52,121.46,167.69,122,165.86Z" fill="#fff"/><path d="M118.79,172.14a5.86,5.86,0,0,1-4.42-1.74,3,3,0,0,1-.48-3.54c1-1.47,3.37-1.52,5.65-1.57a15.7,15.7,0,0,1,2.55.08l.58.08-.17.56c-.55,1.77-1,3.6-1.39,5.46l-.06.28-.28.09A6.19,6.19,0,0,1,118.79,172.14Zm1.69-5.86h-.91c-1.94,0-4.13.09-4.85,1.14a2,2,0,0,0,.41,2.32,5.36,5.36,0,0,0,5.06,1.22c.33-1.58.73-3.15,1.17-4.67C121.07,166.28,120.77,166.28,120.48,166.28Z" fill="#b5b5b5"/><path d="M163.76,206.85a145.39,145.39,0,0,1-.81-22.62,87.47,87.47,0,0,1,1.13-9.5c.39-2,.87-4.06,1.43-6l1.79-19.79,1,.09-1.81,19.88c-.57,2-1,4-1.42,6a84.78,84.78,0,0,0-1.13,9.38,145,145,0,0,0,.81,22.4Z" fill="#b5b5b5"/><path d="M108.68,207.64a105.73,105.73,0,0,1-2-14.84c-.51-8.54.35-13.17,1.14-16.24.36-1.37.79-2.74,1.28-4.07l.94.35a41.56,41.56,0,0,0-1.25,4c-.78,3-1.61,7.53-1.11,15.93a103.55,103.55,0,0,0,1.94,14.7Z" fill="#b5b5b5"/><path d="M61.32,177.76l-.18-1,.83-.15c3.28-.61,6.68-1.23,10.24-1.71a236.37,236.37,0,0,1,27.66-2.08v1a234.49,234.49,0,0,0-27.54,2.07c-3.53.47-6.92,1.1-10.19,1.7Z" fill="#b5b5b5"/><path d="M61.34,177.27a.43.43,0,0,0-.16,0,53.07,53.07,0,0,0-18.06,5.95.46.46,0,0,0,.26.87c2.18-.06,4.45-.18,6.8-.38a111.31,111.31,0,0,0,20.68-3.78.46.46,0,0,0,0-.9Z" fill="#d6d6d6"/><path d="M43.36,184.59a1,1,0,0,1-1-.72.92.92,0,0,1,.47-1.08,52.51,52.51,0,0,1,8.51-3.73,53.47,53.47,0,0,1,9.72-2.29,1.22,1.22,0,0,1,.33,0l9.46,1.76a1,1,0,0,1,.09,1.87,112.18,112.18,0,0,1-20.76,3.8c-2.26.19-4.56.32-6.84.38Zm18-7.32-.1.5A52.7,52.7,0,0,0,51.7,180a52,52,0,0,0-8.34,3.65c2.26-.13,4.54-.26,6.78-.45a110.26,110.26,0,0,0,20.58-3.77l-4.73-.8-4.74-.87Z" fill="#b5b5b5"/><path d="M268.14,188.07,264.33,187l-.09-.23A125.54,125.54,0,0,0,259,175.33l.89-.46c1.9,3.64,3.65,7.44,5.2,11.28l3.33,1Z" fill="#b5b5b5"/><path d="M254.89,168.07a120.69,120.69,0,0,0-10.08-14.15c-1.55-1.88-3.19-3.75-4.86-5.55l.73-.68c1.69,1.81,3.34,3.69,4.9,5.59a122.78,122.78,0,0,1,10.17,14.27Z" fill="#b5b5b5"/><path d="M43.52,204.41a2.92,2.92,0,0,1-2.76-1.89l-.26-.71.46-.19-.47.17a2.77,2.77,0,0,1,.18-2.25,2.89,2.89,0,0,1,1.93-1.43l7.64-1.7a3,3,0,0,1,3.45,1.91l.58,1.8a2.73,2.73,0,0,1-.33,2.37,2.93,2.93,0,0,1-2.22,1.28l-7.95.63Zm-2.09-3,.27.75a2,2,0,0,0,2,1.23l8-.63a2,2,0,0,0,1.47-.85,1.72,1.72,0,0,0,.21-1.51l-.58-1.79a2,2,0,0,0-2.29-1.24l-7.63,1.69a2,2,0,0,0-1.27.94A1.7,1.7,0,0,0,41.43,201.43Z" fill="#b5b5b5"/><path d="M51.88,200c0-1.26-.46-2.29-1-2.29s-1,1-1,2.29.47,2.29,1,2.29S51.88,201.29,51.88,200Z" fill="#d6d6d6"/><path d="M50.84,202.81c-1,0-1.54-1.4-1.54-2.79s.53-2.79,1.54-2.79,1.54,1.4,1.54,2.79S51.85,202.81,50.84,202.81Zm0-4.58c-.12,0-.54.62-.54,1.79s.42,1.76.55,1.79.53-.62.53-1.79S51,198.26,50.84,198.23Z" fill="#b5b5b5"/><path d="M244.76,197.88l-.09-1c4.06-.34,8.84-.79,13.46-1.24s9.4-.89,13.46-1.23l.08,1c-4.05.34-8.83.8-13.45,1.24S248.82,197.54,244.76,197.88Z" fill="#b5b5b5"/><path d="M104.51,208v-1H109l94.4-1.26v1L109,208Z" fill="#b5b5b5"/><rect x="37.03" y="206.44" width="23.44" height="1" transform="translate(-7.64 1.95) rotate(-2.13)" fill="#b5b5b5"/><path d="M152.69,179.9c-2.65,0-5.49-.25-5.51-1.31a.68.68,0,0,1,.21-.5c.87-.9,5.44-1,6-1,2.83-.05,6.19.14,6.22,1.3h0a.76.76,0,0,1-.21.51c-.87.89-5.45,1-6,1Zm-4-1.34a21.34,21.34,0,0,0,4.7.34,21.74,21.74,0,0,0,4.69-.48,27.75,27.75,0,0,0-9.39.14Z" fill="#b5b5b5"/><path d="M210.45,176.33c-2.32,0-5.53-.2-5.55-1.31a.72.72,0,0,1,.21-.5c.87-.9,5.44-1,6-1,2.83-.05,6.2.14,6.22,1.31a.71.71,0,0,1-.21.5c-.87.89-5.44,1-6,1Zm-4-1.33a22.33,22.33,0,0,0,4.71.33,21.7,21.7,0,0,0,4.68-.48,21.48,21.48,0,0,0-4.7-.33A21.09,21.09,0,0,0,206.4,175Z" fill="#b5b5b5"/><rect x="42.25" y="177.96" width="1" height="5.94" transform="translate(-141.57 156.61) rotate(-69.19)" fill="#b5b5b5"/><path d="M216.08,165.49l7.84-.53a11.73,11.73,0,0,0,7.23-3.11l5.8-5.46a1.78,1.78,0,0,0-1-3.06c-10-1.5-20.43-2.61-28.47-3.28" fill="#d6d6d6"/><path d="M216.12,166l-.07-1,7.83-.53a11.19,11.19,0,0,0,6.93-3l5.8-5.46a1.21,1.21,0,0,0,.35-1.26,1.38,1.38,0,0,0-1.14-.94c-11.76-1.76-22.86-2.8-28.43-3.27l.08-1c5.59.46,16.71,1.5,28.5,3.28a2.35,2.35,0,0,1,1.94,1.62,2.19,2.19,0,0,1-.61,2.29l-5.8,5.46a12.22,12.22,0,0,1-7.55,3.25Z" fill="#b5b5b5"/><path d="M97.43,174,99,173c6.42-4.07,13.15-7.89,20-11.37,7.47-3.78,14.33-6.76,17.94-8.17,11.28-4.4,31.33-6,58-4.73,4.53.22,8.27.46,12.49.81l-.08,1c-4.21-.34-7.94-.58-12.46-.8-26.52-1.3-46.43.31-57.58,4.66-3.58,1.4-10.41,4.37-17.85,8.14-6.26,3.16-12.41,6.62-18.31,10.3l8.86-.45,0,1Z" fill="#b5b5b5"/><path d="M81.92,226.27a18.34,18.34,0,1,1,18.75-18.33A18.56,18.56,0,0,1,81.92,226.27Zm0-35.67a17.34,17.34,0,1,0,17.75,17.34A17.57,17.57,0,0,0,81.92,190.6Z" fill="#b5b5b5"/><path d="M81.92,222a14,14,0,1,1,14.36-14A14.21,14.21,0,0,1,81.92,222Zm0-27.09a13,13,0,1,0,13.36,13.05A13.22,13.22,0,0,0,81.92,194.89Z" fill="#b5b5b5"/><path d="M225.33,226.27a18.34,18.34,0,1,1,18.74-18.33A18.56,18.56,0,0,1,225.33,226.27Zm0-35.67a17.34,17.34,0,1,0,17.74,17.34A17.57,17.57,0,0,0,225.33,190.6Z" fill="#b5b5b5"/><path d="M225.33,222a14,14,0,1,1,14.35-14A14.22,14.22,0,0,1,225.33,222Zm0-27.09a13,13,0,1,0,13.35,13.05A13.22,13.22,0,0,0,225.33,194.89Z" fill="#b5b5b5"/><path d="M218.37,187.66l-1-.14c.29-2.07,1.17-8.35,1.23-10.71.11-4.49-.3-6-.72-7.17a14.36,14.36,0,0,0-2.2-3.92l-.05-.09s-2.39-4.8-4.47-8.61a49,49,0,0,0-4.5-6.76l.77-.63a50.38,50.38,0,0,1,4.61,6.91c2,3.62,4.21,8.1,4.46,8.6a15.49,15.49,0,0,1,2.32,4.15c.55,1.54.88,3.33.78,7.54C219.56,179,218.88,184.05,218.37,187.66Z" fill="#b5b5b5"/><rect x="61.95" y="180.35" width="1" height="13.99" transform="translate(-121.94 116.64) rotate(-50.59)" fill="#b5b5b5"/><path d="M250.46,172.51l14.57,4.2a21.63,21.63,0,0,0,.56-4.68,24,24,0,0,0-.28-3.9l-20-.64a.76.76,0,0,0-.6,1.31L246,170A11.07,11.07,0,0,0,250.46,172.51Z" fill="#d6d6d6"/><path d="M265.39,177.34,250.33,173a11.55,11.55,0,0,1-4.7-2.66l-1.24-1.17a1.21,1.21,0,0,1-.31-1.37,1.37,1.37,0,0,1,1.26-.8l20.4.65.06.41a23.52,23.52,0,0,1,.29,4,21.73,21.73,0,0,1-.58,4.79ZM245.3,168a.29.29,0,0,0-.29.18.21.21,0,0,0,.06.26l1.25,1.17A10.6,10.6,0,0,0,250.6,172l14,4.05a20.84,20.84,0,0,0,.44-4.05,23.37,23.37,0,0,0-.22-3.42L245.31,168Z" fill="#b5b5b5"/><path d="M179.42,86.78c-7.35,0-15.9-.16-24.34-.68-3-.18-5.52-.46-7.1-.67a106.68,106.68,0,0,1-13-2.49l-.61-.16,1.25-2.36a209.37,209.37,0,0,1-21.28-9.53c-5.4-2.8-10.73-5.86-15.83-9.12L81,61.51a208.25,208.25,0,0,1-23.48-4.45c-5.94-1.48-11.88-3.25-17.66-5.25a.62.62,0,0,1-.4-.67,82.41,82.41,0,0,0,.83-9,5.15,5.15,0,0,0-.69-3.36,5.91,5.91,0,0,0-4-2.11l-.4-.06,0-.41a37.94,37.94,0,0,1,1.9-14.28l.1-.29,24.49-3.75-.17.73a20.37,20.37,0,0,0,7.58,21.15,22.46,22.46,0,0,0,19.48,3.51C98.45,40.31,105,30.19,104,19.17l0-.54,100.16,1.21-.09.56A20.29,20.29,0,0,0,208.28,36a21.72,21.72,0,0,0,15,8.25,22.16,22.16,0,0,0,17-5.84A20.58,20.58,0,0,0,247.15,23v-.53l20.27,1.11.14.19a27.41,27.41,0,0,1,2.69,4.51,26.32,26.32,0,0,1,1.93,5.84,4.82,4.82,0,0,1,.05,1.52l-.6,4.7a3.71,3.71,0,0,1-1.48,2.5l-1.38,1c-.08,1.14-.13,2.29-.18,3.43-.12,2.43-.23,4.94-.56,7.4-.29,2.17-.78,4.33-1.25,6.42l-.3,1.35A4.3,4.3,0,0,1,265,64.83h0l-2.88,2.46.93-1.35-3.52,1.67-8.17,9.87-2.16,5.28-.32.23-.13,0c-8.3.71-16.69,1.35-24.94,1.92-7.89.54-15.93,1-23.91,1.43C199.78,86.37,191.14,86.78,179.42,86.78Zm-43.58-4.65a107,107,0,0,0,12.27,2.31c1.56.2,4,.48,7,.66,21.85,1.35,44.51.28,44.73.27,8-.41,16-.89,23.89-1.43,8.17-.56,16.47-1.2,24.68-1.9l2.12-5.13L259,66.76l4.55-2.16a3.63,3.63,0,0,0,.81-.53l.25.3-.25-.3a3.32,3.32,0,0,0,1.11-1.82l.31-1.36c.46-2.07.94-4.21,1.23-6.33.32-2.42.44-4.91.55-7.31.06-1.23.11-2.46.2-3.69v-.23l1.75-1.3a2.67,2.67,0,0,0,1.09-1.83l.59-4.69a3.43,3.43,0,0,0,0-1.2,25.56,25.56,0,0,0-1.86-5.62,26,26,0,0,0-2.45-4.15l-18.73-1A21.61,21.61,0,0,1,241,39.19a23.25,23.25,0,0,1-17.81,6.1,22.76,22.76,0,0,1-15.67-8.63A21.31,21.31,0,0,1,203,20.82l-97.93-1.18c.7,11.27-6,21.55-16.22,24.57a23.49,23.49,0,0,1-20.36-3.67,21.4,21.4,0,0,1-8.12-21.47L38,22.51a36.91,36.91,0,0,0-1.78,13.22,6.59,6.59,0,0,1,4.28,2.46,6.12,6.12,0,0,1,.87,4,80.92,80.92,0,0,1-.8,8.82c5.65,2,11.46,3.67,17.28,5.12a207.19,207.19,0,0,0,23.3,4.42l8.48.13v0l9.22.14.12.07C104,64.12,109.37,67.2,114.79,70a205.81,205.81,0,0,0,21.71,9.68l.53.2Z" fill="#b5b5b5"/><path d="M39.67,51.76l-.21-.34a38,38,0,0,1-3.75-10.88,37.32,37.32,0,0,1-.52-4.36l0-.62.61.1a6.86,6.86,0,0,1,4.69,2.53,6.12,6.12,0,0,1,.87,4,81,81,0,0,1-.84,9.1l0,.36Zm-3.44-15a35.77,35.77,0,0,0,.46,3.6,37.34,37.34,0,0,0,3,9.29c.34-2.56.55-5.09.63-7.53a5.15,5.15,0,0,0-.69-3.36A5.5,5.5,0,0,0,36.23,36.76Z" fill="#b5b5b5"/><path d="M98.65,61.27l-9.07-.13a234.07,234.07,0,0,0,21.5,11.57,236.86,236.86,0,0,0,24,9.75c.4-.77.81-1.54,1.22-2.31a207.13,207.13,0,0,1-21.76-9.7C108.71,67.42,103.4,64.31,98.65,61.27Z" fill="#d6d6d6"/><path d="M135.34,83.07l-.41-.14a237.46,237.46,0,0,1-24.06-9.77,233.37,233.37,0,0,1-21.55-11.6l-1.58-1,11.06.17.12.07C104,64.12,109.37,67.2,114.79,70a205.81,205.81,0,0,0,21.71,9.68l.53.2ZM91.42,61.67c6.47,3.85,13.15,7.41,19.87,10.58a232.55,232.55,0,0,0,23.57,9.59l.75-1.42a209.37,209.37,0,0,1-21.28-9.53c-5.4-2.8-10.73-5.86-15.83-9.12Z" fill="#b5b5b5"/><path d="M248.49,83.06l-.13-.39c-.13-.4.13-1.09,1.24-3.59.33-.73.65-1.46.88-2l.08-.13L259,66.76l4.55-2.16a7.09,7.09,0,0,0,.62-.38,1.88,1.88,0,0,1,.24-.18c.37-.25.54-.36.81-.21l.27.15v.31c0,.25-.39.56-.77.8a9.26,9.26,0,0,0-.94,1.4,22.11,22.11,0,0,1-2.42,3.39c-.74,1-2.33,3.05-4.3,5.28-.38.42-.83,1-1.35,1.6-2.73,3.32-5.13,6.07-6.83,6.25Zm2.89-5.58c-.23.58-.55,1.29-.86,2s-.7,1.58-1,2.22c1.55-.94,3.89-3.78,5.38-5.58.52-.64,1-1.2,1.37-1.63,1.95-2.2,3.52-4.26,4.28-5.25A21.51,21.51,0,0,0,262.9,66l-3.35,1.59Z" fill="#b5b5b5"/><path d="M207.43,81.21c8-.67,18.47-1.77,28.47-3.28a1.78,1.78,0,0,0,1-3.06l-5.8-5.45a11.68,11.68,0,0,0-7.23-3.12l-7.84-.53" fill="#d6d6d6"/><path d="M207.47,81.71l-.08-1c5.57-.46,16.67-1.5,28.43-3.27a1.39,1.39,0,0,0,1.14-.93,1.22,1.22,0,0,0-.35-1.27l-5.8-5.46a11.24,11.24,0,0,0-6.93-3l-7.83-.53.07-1,7.83.53a12.27,12.27,0,0,1,7.55,3.25l5.8,5.46a2.21,2.21,0,0,1,.61,2.3A2.35,2.35,0,0,1,236,78.43C224.18,80.2,213.05,81.24,207.47,81.71Z" fill="#b5b5b5"/><path d="M178.13,83C159.8,83,145.75,81.2,137,77.78c-3.61-1.4-10.46-4.39-17.94-8.17-6.86-3.47-13.59-7.3-20-11.37l-1.61-1,12.67.64,0,1-8.86-.45c5.9,3.68,12,7.14,18.31,10.31,7.44,3.76,14.27,6.73,17.85,8.13,11.15,4.35,31.05,6,57.58,4.66,4.56-.22,8.29-.46,12.46-.8l.08,1c-4.18.34-7.92.58-12.49.8Q186,82.95,178.13,83Z" fill="#b5b5b5"/><path d="M160.7,63.51l-55.35-3.77c4.78,2.86,9.69,5.57,14.68,8.09,7.42,3.76,14.2,6.71,17.75,8.09,7,2.73,16.86,4,26.37,4.62C163.29,76.33,161.67,68.37,160.7,63.51Z" fill="#d6d6d6"/><path d="M164.77,81.08l-.65,0c-11.47-.7-20.39-2.26-26.52-4.65C134,75,127.23,72,119.81,68.28c-5-2.52-9.94-5.25-14.72-8.11l-1.78-1.07L161.12,63l.07.37c1,4.86,2.59,12.82,3.45,17Zm-57.36-20.7c4.2,2.46,8.51,4.81,12.85,7,7.39,3.74,14.16,6.68,17.7,8.07,5.92,2.3,14.52,3.83,25.57,4.54-.86-4.22-2.32-11.37-3.24-16Z" fill="#b5b5b5"/><path d="M209.5,66.83l-38.14-2.59.49,16.62c2.21.06,4.35.08,6.36.08,5.21,0,10.81-.15,16.66-.43,2.89-.14,5.78-.32,8.68-.52Z" fill="#d6d6d6"/><path d="M178.21,81.44c-2.15,0-4.3,0-6.37-.08h-.48l-.52-17.65,39.42,2.68-6.37,14.08-.3,0c-3,.21-5.89.39-8.7.53C189,81.29,183.43,81.44,178.21,81.44Zm-5.88-1.07c1.92,0,3.9.07,5.88.07,5.21,0,10.8-.15,16.63-.43,2.71-.13,5.52-.3,8.38-.5l5.53-12.23-36.88-2.51Z" fill="#b5b5b5"/><path d="M114.75,61.42l2.87-1.83-3.53-2.69a1.91,1.91,0,0,0-1.55.4,1.67,1.67,0,0,0-.57,1.2l2.78,2.92" fill="#fff"/><path d="M114.67,62.07l-3.2-3.38v-.2a2.17,2.17,0,0,1,.74-1.57,2.47,2.47,0,0,1,2-.52l.12,0,4.2,3.2Zm-2.18-3.75,2.33,2.46,1.93-1.23-2.85-2.17a1.34,1.34,0,0,0-1,.29A1.18,1.18,0,0,0,112.49,58.32Z" fill="#b5b5b5"/><path d="M120.62,59.81c-1.92-.63-4.62-.17-5.87,1.3A2.48,2.48,0,0,0,114.3,64c.87,1.25,3.15,1.3,5.26,1.35a15.59,15.59,0,0,0,2.46-.07C121.46,63.5,121,61.66,120.62,59.81Z" fill="#fff"/><path d="M120.48,65.91l-.94,0c-2.28,0-4.64-.1-5.65-1.57a3,3,0,0,1,.48-3.54c1.46-1.71,4.46-2.09,6.4-1.44l.28.09.06.28c.38,1.86.85,3.7,1.39,5.46l.17.56-.58.08A10.79,10.79,0,0,1,120.48,65.91ZM118.79,60a5,5,0,0,0-3.66,1.4,2,2,0,0,0-.41,2.32c.72,1,2.91,1.1,4.84,1.14.55,0,1.2,0,1.8,0-.44-1.52-.84-3.09-1.17-4.67A5.43,5.43,0,0,0,118.79,60Z" fill="#b5b5b5"/><path d="M167.3,82.28,165.49,62.4c-.54-1.88-1-3.92-1.41-5.95A87.47,87.47,0,0,1,163,47a144.79,144.79,0,0,1,.81-22.59l1,.09v0a145.11,145.11,0,0,0-.81,22.41,84.39,84.39,0,0,0,1.13,9.37c.38,2,.85,4,1.4,6l1.83,20Z" fill="#b5b5b5"/><path d="M109.14,58.69c-.49-1.33-.92-2.7-1.28-4.07-.79-3.07-1.65-7.69-1.14-16.24a105.73,105.73,0,0,1,2-14.84l1,.2a103.74,103.74,0,0,0-1.94,14.7c-.5,8.41.33,12.93,1.11,15.93.35,1.34.77,2.68,1.25,4Z" fill="#b5b5b5"/><path d="M99.87,58.36a238.4,238.4,0,0,1-27.66-2.09c-3.57-.48-7-1.11-10.28-1.71l-.79-.15.18-1,.79.15c3.29.61,6.69,1.24,10.23,1.71a234.17,234.17,0,0,0,27.54,2.08Z" fill="#b5b5b5"/><path d="M70.81,52.15a.45.45,0,0,0,0-.89,111.27,111.27,0,0,0-20.68-3.79q-3.52-.3-6.8-.37a.46.46,0,0,0-.26.86,51.54,51.54,0,0,0,8.43,3.68,52.78,52.78,0,0,0,9.63,2.27.43.43,0,0,0,.16,0Z" fill="#d6d6d6"/><path d="M61.24,54.42h-.13a53.47,53.47,0,0,1-9.72-2.29,53.24,53.24,0,0,1-8.51-3.72.94.94,0,0,1-.47-1.09,1,1,0,0,1,1-.71h0c2.28,0,4.58.18,6.84.37A113,113,0,0,1,71,50.77a1,1,0,0,1-.09,1.87h0L61.43,54.4ZM43.37,47.6a59.32,59.32,0,0,0,8.33,3.57,53.58,53.58,0,0,0,9.54,2.25l9.48-1.76h0A118.39,118.39,0,0,0,50.14,48C47.9,47.78,45.62,47.65,43.37,47.6Z" fill="#b5b5b5"/><path d="M259.88,56.31l-.89-.46c1.92-3.68,3.69-7.53,5.25-11.42l.09-.23,3.81-1.09.27,1-3.33,1C263.53,48.88,261.78,52.67,259.88,56.31Z" fill="#b5b5b5"/><path d="M240.68,83.49l-.73-.68c1.67-1.8,3.31-3.66,4.86-5.55a121.88,121.88,0,0,0,10.08-14.15l.86.52A122.78,122.78,0,0,1,245.58,77.9C244,79.8,242.37,81.68,240.68,83.49Z" fill="#b5b5b5"/><path d="M50.89,34.84a2.81,2.81,0,0,1-.65-.07L42.6,33.08a3,3,0,0,1-1.93-1.43,2.79,2.79,0,0,1-.18-2.26l.27-.73a2.91,2.91,0,0,1,3-1.88l7.95.63a2.92,2.92,0,0,1,2.22,1.29,2.72,2.72,0,0,1,.33,2.37l-.58,1.79A2.92,2.92,0,0,1,50.89,34.84Zm-7.37-7.07A1.92,1.92,0,0,0,41.7,29l-.26.71a1.71,1.71,0,0,0,.11,1.45,1.89,1.89,0,0,0,1.27.94l7.63,1.69a2,2,0,0,0,2.29-1.24l.58-1.79a1.72,1.72,0,0,0-.21-1.51,2,2,0,0,0-1.47-.84l-8-.64Z" fill="#b5b5b5"/><path d="M50.84,28.87c-.57,0-1,1-1,2.29s.47,2.29,1,2.29,1-1,1-2.29S51.42,28.87,50.84,28.87Z" fill="#d6d6d6"/><path d="M50.84,34c-1,0-1.54-1.4-1.54-2.79s.53-2.79,1.54-2.79,1.54,1.4,1.54,2.79S51.85,34,50.84,34Zm0-4.58c-.13,0-.54.63-.54,1.79s.42,1.76.55,1.79.53-.62.53-1.79S51,29.41,50.84,29.37Z" fill="#b5b5b5"/><path d="M271.59,36.78c-4.06-.34-8.84-.8-13.46-1.24s-9.4-.9-13.46-1.24l.09-1c4.06.34,8.84.8,13.46,1.24s9.4.9,13.45,1.24Z" fill="#b5b5b5"/><path d="M203.39,25.4,109,24.14h-4.47v-1H109L203.4,24.4Z" fill="#b5b5b5"/><rect x="48.25" y="12.52" width="1" height="23.44" transform="translate(22.71 72.05) rotate(-87.87)" fill="#b5b5b5"/><path d="M154.06,54.1h-.71c-.52,0-5.09-.11-6-1a.68.68,0,0,1-.21-.5c0-1.16,3.39-1.35,6.22-1.31h0c.51,0,5.09.11,6,1a.72.72,0,0,1,.21.5C159.55,53.85,156.71,54.1,154.06,54.1Zm-5.38-1.48a21.7,21.7,0,0,0,4.68.48,21.45,21.45,0,0,0,4.71-.34,21.74,21.74,0,0,0-4.69-.48A21.28,21.28,0,0,0,148.68,52.62Z" fill="#b5b5b5"/><path d="M211.78,57.67h-.71c-.52,0-5.09-.1-6-1a.72.72,0,0,1-.21-.5c0-1.16,3.39-1.36,6.22-1.31.52,0,5.09.11,6,1a.68.68,0,0,1,.21.5C217.27,57.42,214.43,57.67,211.78,57.67Zm-5.38-1.48a21.28,21.28,0,0,0,4.69.47,21,21,0,0,0,4.7-.33,21.7,21.7,0,0,0-4.68-.48A21.45,21.45,0,0,0,206.4,56.19Z" fill="#b5b5b5"/><rect x="39.77" y="49.75" width="5.94" height="1" transform="translate(-15.06 18.46) rotate(-20.8)" fill="#b5b5b5"/><path d="M81.92,41.58A18.56,18.56,0,0,1,63.17,23.25a18.75,18.75,0,0,1,37.5,0A18.56,18.56,0,0,1,81.92,41.58Zm0-35.67A17.57,17.57,0,0,0,64.17,23.25a17.76,17.76,0,0,0,35.5,0A17.57,17.57,0,0,0,81.92,5.91Z" fill="#b5b5b5"/><path d="M81.92,37.29a14.21,14.21,0,0,1-14.35-14,14.36,14.36,0,0,1,28.71,0A14.22,14.22,0,0,1,81.92,37.29Zm0-27.09A13.22,13.22,0,0,0,68.57,23.25a13.36,13.36,0,0,0,26.71,0A13.22,13.22,0,0,0,81.92,10.2Z" fill="#b5b5b5"/><path d="M225.33,41.58a18.56,18.56,0,0,1-18.75-18.33,18.75,18.75,0,0,1,37.49,0A18.56,18.56,0,0,1,225.33,41.58Zm0-35.67a17.57,17.57,0,0,0-17.75,17.34,17.75,17.75,0,0,0,35.49,0A17.57,17.57,0,0,0,225.33,5.91Z" fill="#b5b5b5"/><path d="M225.33,37.29a14.22,14.22,0,0,1-14.36-14,14.36,14.36,0,0,1,28.71,0A14.22,14.22,0,0,1,225.33,37.29Zm0-27.09A13.22,13.22,0,0,0,212,23.25a13.36,13.36,0,0,0,26.71,0A13.22,13.22,0,0,0,225.33,10.2Z" fill="#b5b5b5"/><path d="M207.44,81.56l-.77-.64a49.3,49.3,0,0,0,4.5-6.75c2.08-3.81,4.44-8.57,4.47-8.62l.05-.09a14.46,14.46,0,0,0,2.2-3.91c.42-1.17.83-2.69.72-7.18-.06-2.36-.94-8.64-1.23-10.71l1-.14c.51,3.61,1.19,8.66,1.24,10.83.1,4.21-.23,6-.78,7.54A15.34,15.34,0,0,1,216.51,66c-.25.5-2.48,5-4.46,8.6A50.13,50.13,0,0,1,207.44,81.56Z" fill="#b5b5b5"/><rect x="55.45" y="43.34" width="13.99" height="1" transform="translate(-13.64 49.57) rotate(-39.38)" fill="#b5b5b5"/><path d="M246,61.21l-1.24,1.17a.76.76,0,0,0,.6,1.31l20-.63a24.16,24.16,0,0,0,.28-3.91,21.63,21.63,0,0,0-.56-4.68l-14.57,4.2A11.19,11.19,0,0,0,246,61.21Z" fill="#d6d6d6"/><path d="M245.3,64.19a1.3,1.3,0,0,1-1.22-.8,1.22,1.22,0,0,1,.3-1.37l1.25-1.17a11.55,11.55,0,0,1,4.7-2.66l15.06-4.35.12.51a21.8,21.8,0,0,1,.58,4.79,23.45,23.45,0,0,1-.29,4l-.06.41-20.4.65Zm19.35-9.09-14,4a10.6,10.6,0,0,0-4.28,2.43l-1.25,1.17A.22.22,0,0,0,245,63a.35.35,0,0,0,.3.18l19.56-.62a23.28,23.28,0,0,0,.22-3.42A20.84,20.84,0,0,0,264.65,55.1Z" fill="#b5b5b5"/><path d="M30,161.89l-.13,0L4.14,159.34a3.58,3.58,0,0,1-2.62-3.76c.13-2.58,0-12.28,0-12.38v-.27l.23-.15s1-.78,1.14-3.75c.13-3.16.26-46,.27-49.78-.53-.43-1.64-1.7-1.64-4.66,0-3.54,0-12,0-12h0A2,2,0,0,1,2,71.07a4.63,4.63,0,0,1,3.42-1.45l26.08-2.3.28,0,5.77,7.55-3,3.8a14.26,14.26,0,0,0-.5,5.85,9.16,9.16,0,0,0,1.85,4l1.44.64,1.33,7.28L39.33,125l-.68,8.68-1.42,6.55-.27.1A4.5,4.5,0,0,0,34,144.46a35.87,35.87,0,0,0,.52,6l3,3.71-4.71,6.49ZM2.52,143.42c0,1.52.12,9.79,0,12.21a2.57,2.57,0,0,0,1.8,2.73l25.47,2.51,2.35-1,4.1-5.65-2.63-3.31,0-.12a35.94,35.94,0,0,1-.56-6.31,5.52,5.52,0,0,1,3.33-5l1.31-6,.66-8.57-.68-28.49L36.43,89.8l-1.22-.58A10,10,0,0,1,33,84.69a15.53,15.53,0,0,1,.56-6.43l.09-.16,2.55-3.27-5-6.49c-2.56.22-22.25,2-25.81,2.28-1.68.15-2.39.64-2.7,1a1.15,1.15,0,0,0-.26.8c0,.09,0,8.6,0,12.14,0,3.14,1.36,4,1.38,4l.25.15V89c0,1.91-.14,46.77-.27,50.08C3.76,141.82,2.94,143,2.52,143.42Z" fill="#b5b5b5"/><path d="M27.58,138.89a10,10,0,0,1-5.79-2.23c-4.62-5.6-5-25.43-3.19-36.12.75-4.52,1.78-7.21,3.06-8l0,0c6.5-3.47,11.61,1.55,11.66,1.61l.09.09,0,.12c0,.07,2.19,7.61,2.19,20.26s-2.16,20.67-2.19,20.75l-.07.15a7.2,7.2,0,0,1-4.95,3.33A6.47,6.47,0,0,1,27.58,138.89ZM22.5,136s2.81,2.29,5.82,1.88A6.18,6.18,0,0,0,32.53,135a86.9,86.9,0,0,0,2.13-20.4,81.47,81.47,0,0,0-2.11-19.86,9,9,0,0,0-10.38-1.35c-.47.3-1.64,1.62-2.58,7.31-1.75,10.51-1.48,29.94,2.91,35.26Z" fill="#b5b5b5"/><path d="M10.94,141.78a5.14,5.14,0,0,1-3-1.05l-.18-.13,0-.22c0-.21-2.56-21.58,0-51.66l0-.3.28-.12c.15-.06,3.56-1.48,5.53.07l.19.15v52l-.12.14A3.82,3.82,0,0,1,10.94,141.78ZM8.74,140c2.2,1.44,3.63.45,4,.08V89c-1.26-.77-3.31-.16-4,.1C6.37,117.28,8.48,137.68,8.74,140Z" fill="#b5b5b5"/><path d="M16,87.51a3.24,3.24,0,0,1-3.14-1.75l0-.14L11.11,75.13l0-.12c0-.11,1-2.62,4.71-2.74s5.85,3.42,5.94,3.57l.11.18L19.29,86.7l-.22.1A7.64,7.64,0,0,1,16,87.51Zm-2.21-2.13c1,1.89,3.85.93,4.66.6l2.39-9.78c-.45-.66-2.27-3-4.94-2.93s-3.54,1.56-3.75,2Z" fill="#b5b5b5"/><ellipse cx="16.55" cy="77.63" rx="2.99" ry="2.53" fill="#d6d6d6"/><path d="M16.55,80.66a3.06,3.06,0,1,1,0-6.06,3.06,3.06,0,1,1,0,6.06Zm0-5.06a2.07,2.07,0,1,0,0,4.06,2.07,2.07,0,1,0,0-4.06Z" fill="#b5b5b5"/><path d="M16,157h-.18c-3.69-.12-4.67-2.63-4.71-2.74l0-.13,1.74-10.62c1.24-2.54,4.61-1.79,6.22-1l.22.1,2.62,10.68-.11.17C21.71,153.58,19.58,157,16,157Zm-3.9-3a4.07,4.07,0,0,0,3.75,2c2.68.12,4.49-2.28,4.94-2.93l-2.39-9.79c-.81-.32-3.66-1.28-4.66.6Z" fill="#b5b5b5"/><ellipse cx="16.55" cy="151.65" rx="2.99" ry="2.53" fill="#d6d6d6"/><path d="M16.55,154.68a3.06,3.06,0,1,1,0-6.06,3.06,3.06,0,1,1,0,6.06Zm0-5.06a2.07,2.07,0,1,0,0,4.06,2.07,2.07,0,1,0,0-4.06Z" fill="#b5b5b5"/><path d="M259.1,155.59s2.45,2,6.49-.49,4.15-9.85,4.15-9.85L261.83,141" fill="#d6d6d6"/><path d="M261.68,156.83a4.87,4.87,0,0,1-2.89-.85l.62-.79c.09.07,2.26,1.7,5.92-.52,3.32-2,3.82-7.75,3.9-9.13l-7.64-4.11.48-.88,8.18,4.4v.31c0,.31-.16,7.7-4.39,10.26A8,8,0,0,1,261.68,156.83Z" fill="#b5b5b5"/><path d="M261.83,89.66l7.91-4.25s-.11-7.4-4.15-9.85-6.49-.49-6.49-.49" fill="#d6d6d6"/><path d="M262.07,90.1l-.48-.88,7.64-4.1c-.08-1.38-.59-7.12-3.9-9.13-3.66-2.22-5.83-.6-5.92-.52l-.62-.79c.11-.09,2.77-2.15,7.06.45s4.39,10,4.39,10.27v.31Z" fill="#b5b5b5"/><path d="M278,162.3c-5.49,0-10.54-.46-13.16-1.48a19.27,19.27,0,0,1-6.11-4.92l-.14-.18L261.33,141V89.82L258.5,75l.18-.18A24.7,24.7,0,0,1,266,69.56c11.91-2.66,28.67.63,31.91,1.31,5.67,1.2,5.28,5.84,5.27,5.89v75.39c0,.14,0,3.43-3.56,6.81C297.51,161,287.14,162.3,278,162.3Zm-18.35-6.85a18.22,18.22,0,0,0,5.58,4.44c6.58,2.58,30.56,1.41,33.75-1.66s3.25-6,3.25-6.08V76.71c0-.2.29-3.85-4.49-4.86-3.2-.68-19.77-3.93-31.4-1.34a23.84,23.84,0,0,0-6.74,4.84l2.74,14.38v51.36Z" fill="#b5b5b5"/><polygon points="292 160.68 288.5 144.89 288.52 84.58 292 70.27 292.97 70.5 289.5 84.75 289.5 144.84 292.97 160.47 292 160.68" fill="#b5b5b5"/><path d="M301.34,145.43c-.24-.2-5.82-5-6.9-14.61V99a20.6,20.6,0,0,1,8-14.69l.58.81c-.07.05-7,5.11-7.56,13.92v31.74c1,9.15,6.49,13.86,6.55,13.9Z" fill="#b5b5b5"/><path d="M271.62,149.18a11.89,11.89,0,0,1-2.08-.14l.18-1c2.87.54,12.29-.8,14.4-1.12V83.82c-4.46-1.12-14.38-1-14.49-1v-1c.43,0,10.73-.07,15.13,1.19l.36.1V147.8l-.42.07A114.8,114.8,0,0,1,271.62,149.18Z" fill="#b5b5b5"/><path d="M297,157.92v-8.57l-3.51-4.65C290.08,153.66,297,157.92,297,157.92Z" fill="#d6d6d6"/><path d="M297.46,158.82l-.76-.47c-.07,0-7.19-4.59-3.72-13.83l.32-.85,4.16,5.51Zm-3.84-13.07c-1.94,6.21,1.28,9.84,2.84,11.17v-7.4Z" fill="#b5b5b5"/><path d="M293.45,86.13,297,81.48V72.91S290.08,77.17,293.45,86.13Z" fill="#d6d6d6"/><path d="M293.3,87.15,293,86.3c-3.47-9.23,3.65-13.77,3.72-13.82l.76-.47v9.63Zm3.16-13.24c-1.56,1.32-4.78,5-2.84,11.17l2.84-3.77Z" fill="#b5b5b5"/><path d="M135.1,82.46,97.75,78.38c-4.32-.57-10.16,1.36-12.16,5.13a64.45,64.45,0,0,0-6.6,22.4l.12,17.3c.66,10,4.36,21.69,7.93,25.36,3,3.11,5.87,4.29,10.22,3.6l37.84-3.44s-3.62-4.77-3.62-33.32S135.1,82.46,135.1,82.46Z" fill="#d6d6d6"/><path d="M95,152.86c-3.16,0-5.69-1.22-8.33-3.94-3.71-3.81-7.41-15.57-8.08-25.67l-.12-17.34a65.82,65.82,0,0,1,6.65-22.63c2.18-4.09,8.28-6,12.68-5.39l38.25,4.17-.58.71c-.09.11-3.52,5.09-3.51,32.64,0,27.79,3.48,33,3.52,33l.51.71-.87.09-37.83,3.44A14.42,14.42,0,0,1,95,152.86Zm1.19-74.08c-3.88,0-8.5,1.8-10.18,5A64.54,64.54,0,0,0,79.48,106l.13,17.26c.65,9.7,4.29,21.4,7.79,25,3,3.12,5.79,4.09,9.78,3.46l37.12-3.38c-1-2.15-3.32-9.78-3.32-32.89S133.32,85,134.3,82.87l-36.6-4A10.36,10.36,0,0,0,96.21,78.78Z" fill="#b5b5b5"/><path d="M91.78,155.83C73.63,154.74,60.33,149.9,45.94,143a7.24,7.24,0,0,1-4.42-4.81c-1.3-4.76-3.44-14.16-3.16-23.52a105.78,105.78,0,0,1,3.13-21.76,8.7,8.7,0,0,1,4.25-5.39c4-2.24,19.26-9.77,46-12.6h.1l.11,0A22.75,22.75,0,0,1,98.05,78l-.6.8a22.34,22.34,0,0,0-5.72-2.89C65.25,78.71,50.21,86.14,46.22,88.35a7.69,7.69,0,0,0-3.76,4.76,105.07,105.07,0,0,0-3.1,21.55c-.28,9.23,1.84,18.52,3.12,23.23a6.24,6.24,0,0,0,3.85,4.16c14.33,6.89,27.53,11.7,45.48,12.78,1.35,0,4.54-2.1,5.65-2.91l.59.81C97.61,153.05,93.74,155.83,91.78,155.83Z" fill="#b5b5b5"/><rect x="193.87" y="144.57" width="47.95" height="1" transform="translate(-0.28 0.43) rotate(-0.11)" fill="#b5b5b5"/><path d="M217.7,86.71c-12.23,0-23.64-.12-23.84-.13v-1c.35,0,34.43.39,47.93-.17l0,1C236.11,86.64,226.68,86.71,217.7,86.71Z" fill="#b5b5b5"/><path d="M241.82,85.91c1.51-.07,2.77-.13,3.7-.21,9.37-.78,14.6,9.11,14.6,9.11s4,22.49,1,37S245.69,145,245.69,145l-3.87.08s2-10,2-29S241.82,85.91,241.82,85.91Z" fill="#d6d6d6"/><path d="M241.21,145.56l.11-.61c0-.1,2-10.21,2-28.95s-1.92-29.9-1.94-30l-.1-.56.57,0c1.55-.07,2.79-.14,3.68-.21,9.61-.79,15,9.28,15.08,9.38l.05.15c0,.22,4,22.75,1,37.18-3,14.79-15.87,13.56-16,13.55Zm1.19-59.18A202.85,202.85,0,0,1,244.27,116c0,16.26-1.45,26.08-1.86,28.53l3.27-.07c.56.06,12.16,1.13,15-12.75s-.76-35.24-1-36.73c-.47-.85-5.56-9.48-14.08-8.78C244.77,86.26,243.71,86.32,242.4,86.38Z" fill="#b5b5b5"/><path d="M33.27,144.1c0,1.41.56,6.71.56,6.71l3.07,3.82,4.47,3.48s1.4,0,1.54-1.74,0-8,0-8a24.08,24.08,0,0,1-6-9.44S32.83,140.68,33.27,144.1Z" fill="#d6d6d6"/><path d="M41.37,158.61H41.2l-4.69-3.67L33.35,151l0-.14c0-.22-.55-5.28-.56-6.74-.45-3.73,3.76-5.55,3.94-5.62l.51-.22.16.53a23.66,23.66,0,0,0,5.87,9.23l.15.14v.21c0,.26.14,6.26,0,8A2.14,2.14,0,0,1,41.37,158.61Zm-4.12-4.34,4.27,3.32c.28-.06.81-.3.89-1.26.12-1.52,0-6.6,0-7.7a24.54,24.54,0,0,1-5.8-8.95c-1,.55-3.14,2-2.84,4.36v.06c0,1.24.45,5.65.54,6.52Z" fill="#b5b5b5"/><path d="M36.9,90.11a24.16,24.16,0,0,1,6-9.45s.14-6.21,0-8S41.37,71,41.37,71L36.9,74.45l-3.07,3.81s-.56,5.31-.56,6.72C32.83,88.4,36.9,90.11,36.9,90.11Z" fill="#d6d6d6"/><path d="M37.22,90.78l-.51-.21c-.18-.08-4.42-1.9-3.94-5.66,0-1.35.54-6.48.56-6.7l0-.15,3.24-4,4.61-3.58h.17a2.14,2.14,0,0,1,2,2.2c.15,1.74,0,7.75,0,8v.22l-.15.14a23.66,23.66,0,0,0-5.87,9.23ZM34.31,78.46c-.09.87-.54,5.28-.54,6.52-.3,2.37,1.84,3.86,2.84,4.42a24.71,24.71,0,0,1,5.8-9c0-1.09.12-6.17,0-7.69-.08-1-.61-1.2-.89-1.26l-4.27,3.32Z" fill="#b5b5b5"/></svg>