<svg xmlns="http://www.w3.org/2000/svg" viewBox="0 8.859999656677246 140.6699981689453 37.0099983215332" data-asc="0.9052734375" width="140.6699981689453" height="37.0099983215332"><defs/><g fill="#1c1c1c"><g transform="translate(0, 0)"><path d="M23.41 9.47L28.15 9.47L28.15 30.15Q28.15 35.55 26.93 38.72Q25.71 41.89 22.52 43.88Q19.34 45.87 14.16 45.87Q9.13 45.87 5.93 44.14Q2.73 42.41 1.37 39.12Q0 35.84 0 30.15L0 9.47L4.74 9.47L4.74 30.13Q4.74 34.79 5.60 37.00Q6.47 39.21 8.58 40.41Q10.69 41.60 13.75 41.60Q18.97 41.60 21.19 39.23Q23.41 36.87 23.41 30.13L23.41 9.47ZM36.04 45.26L36.04 9.47L48.36 9.47Q52.54 9.47 54.74 9.99Q57.81 10.69 59.99 12.55Q62.82 14.94 64.22 18.66Q65.63 22.39 65.63 27.17Q65.63 31.25 64.67 34.40Q63.72 37.55 62.23 39.61Q60.74 41.67 58.97 42.86Q57.20 44.04 54.70 44.65Q52.20 45.26 48.95 45.26L36.04 45.26M40.77 41.04L48.41 41.04Q51.95 41.04 53.97 40.38Q55.98 39.72 57.18 38.53Q58.86 36.84 59.80 34.00Q60.74 31.15 60.74 27.10Q60.74 21.48 58.90 18.47Q57.06 15.45 54.42 14.43Q52.51 13.70 48.29 13.70L40.77 13.70L40.77 41.04ZM72.00 45.26L72.00 9.47L79.13 9.47L87.60 34.81Q88.77 38.35 89.31 40.11Q89.92 38.16 91.21 34.38L99.78 9.47L106.15 9.47L106.15 45.26L101.59 45.26L101.59 15.31L91.19 45.26L86.91 45.26L76.56 14.79L76.56 45.26L72.00 45.26ZM112.18 33.76L116.65 33.37Q116.97 36.06 118.13 37.78Q119.29 39.50 121.73 40.56Q124.17 41.63 127.22 41.63Q129.93 41.63 132.01 40.82Q134.08 40.01 135.10 38.61Q136.11 37.21 136.11 35.55Q136.11 33.86 135.13 32.60Q134.16 31.35 131.91 30.49Q130.47 29.93 125.54 28.75Q120.61 27.56 118.63 26.51Q116.06 25.17 114.81 23.18Q113.55 21.19 113.55 18.73Q113.55 16.02 115.09 13.66Q116.63 11.30 119.58 10.08Q122.53 8.86 126.15 8.86Q130.13 8.86 133.17 10.14Q136.21 11.43 137.84 13.92Q139.48 16.41 139.60 19.56L135.06 19.90Q134.69 16.50 132.58 14.77Q130.47 13.04 126.34 13.04Q122.05 13.04 120.08 14.61Q118.12 16.19 118.12 18.41Q118.12 20.34 119.51 21.58Q120.87 22.83 126.65 24.13Q132.42 25.44 134.57 26.42Q137.70 27.86 139.18 30.07Q140.67 32.28 140.67 35.16Q140.67 38.01 139.04 40.54Q137.40 43.07 134.34 44.47Q131.27 45.87 127.44 45.87Q122.58 45.87 119.30 44.46Q116.02 43.04 114.15 40.20Q112.28 37.35 112.18 33.76Z"/></g></g></svg>